<?xml version="1.0" encoding="UTF-8" standalone="no"?>
<svg
   xmlns:dc="http://purl.org/dc/elements/1.1/"
   xmlns:cc="http://creativecommons.org/ns#"
   xmlns:rdf="http://www.w3.org/1999/02/22-rdf-syntax-ns#"
   xmlns:svg="http://www.w3.org/2000/svg"
   xmlns="http://www.w3.org/2000/svg"
   xmlns:sodipodi="http://sodipodi.sourceforge.net/DTD/sodipodi-0.dtd"
   xmlns:inkscape="http://www.inkscape.org/namespaces/inkscape"
   stroke-miterlimit="10"
   font-weight="normal"
   font-style="normal"
   font-size="12"
   version="1.1"
   id="svg49"
   sodipodi:docname="armenian_dram_sign.svg"
   inkscape:version="0.92.3 (2405546, 2018-03-11)"
   width="12"
   height="17"
   style="font-style:normal;font-weight:normal;font-size:12px;font-family:Dialog;color-interpolation:auto;fill:#000000;fill-opacity:1;stroke:#000000;stroke-width:1;stroke-linecap:square;stroke-linejoin:miter;stroke-miterlimit:10;stroke-dasharray:none;stroke-dashoffset:0;stroke-opacity:1;color-rendering:auto;image-rendering:auto;shape-rendering:auto;text-rendering:auto">
  <metadata
     id="metadata53">
    <rdf:RDF>
      <cc:Work
         rdf:about="">
        <dc:format>image/svg+xml</dc:format>
        <dc:type
           rdf:resource="http://purl.org/dc/dcmitype/StillImage" />
        <dc:title></dc:title>
      </cc:Work>
    </rdf:RDF>
  </metadata>
  <sodipodi:namedview
     pagecolor="#ffffff"
     bordercolor="#666666"
     borderopacity="1"
     objecttolerance="10"
     gridtolerance="10"
     guidetolerance="10"
     inkscape:pageopacity="0"
     inkscape:pageshadow="2"
     inkscape:window-width="1366"
     inkscape:window-height="713"
     id="namedview51"
     showgrid="false"
     inkscape:zoom="5.22"
     inkscape:cx="50"
     inkscape:cy="22.636199"
     inkscape:window-x="0"
     inkscape:window-y="0"
     inkscape:window-maximized="1"
     inkscape:current-layer="svg49"
     fit-margin-top="0"
     fit-margin-left="0"
     fit-margin-right="0"
     fit-margin-bottom="2" />
  <!--Unicode Character 'ARMENIAN DRAM SIGN' (U+058F)-->
  <defs
     id="genericDefs" />
  <g
     id="g47"
     transform="matrix(0.08234163,0,0,0.07038767,-1.2801571,-14.021256)">
    <g
       id="g45">
      <path
         d="m 126.1406,377.845 q 0,6.0469 -6.0468,6.0469 -6.0469,0 -6.0469,-5.75 V 313.3294 H 77.1875 q -6.0469,0 -6.0469,-6.0469 0,-6.0468 6.0469,-6.0468 h 36.8594 v -12.375 H 77.1875 q -6.0469,0 -6.0469,-6.0469 0,-6.0469 6.0469,-6.0469 h 36.8594 q -0.8594,-26.2187 -10.9375,-38.6016 -10.0782,-12.3828 -31.9688,-12.3828 -8.9375,0 -16.8515,2.7344 -7.9141,2.7344 -13.9688,7.6328 -6.0547,4.8985 -9.5078,11.6641 -3.4531,6.7656 -3.4531,14.8281 v 14.6875 q -0.2813,4.6094 -6.0469,4.6094 -4.8906,0 -5.7656,-4.8906 v -14.4063 q 0,-10.6562 4.4687,-19.7266 4.4688,-9.0703 12.1016,-15.5468 7.6328,-6.4766 18,-10.2188 10.3672,-3.7422 22.164,-3.7422 28.2344,0 40.6172,15.1172 12.3828,15.1172 13.2422,48.2422 h 29.0938 q 6.0468,0 6.0468,6.0469 0,6.0469 -6.0468,6.0469 h -29.0938 v 12.375 h 29.0938 q 6.0468,0 6.0468,6.0468 0,6.0469 -6.0468,6.0469 h -29.0938 z"
         id="path43"
         inkscape:connector-curvature="0"
         style="stroke:none" />
    </g>
  </g>
</svg>
